<?xml version="1.0" encoding="UTF-8"?>
<!DOCTYPE svg PUBLIC "-//W3C//DTD SVG 1.1//EN" "http://www.w3.org/Graphics/SVG/1.1/DTD/svg11.dtd">
<svg xmlns="http://www.w3.org/2000/svg" version="1.1" width="500px" height="500px" style="shape-rendering:geometricPrecision; text-rendering:geometricPrecision; image-rendering:optimizeQuality; fill-rule:evenodd; clip-rule:evenodd" xmlns:xlink="http://www.w3.org/1999/xlink">
<g><path style="opacity:0.62" fill="#bf93fa" d="M 117.5,5.5 C 117.059,21.3329 116.393,36.9996 115.5,52.5C 114.769,38.1707 114.603,23.8373 115,9.5C 115.2,7.68034 116.034,6.347 117.5,5.5 Z"/></g>
<g><path style="opacity:0.993" fill="#a669fb" d="M 123.5,2.5 C 123.5,2.83333 123.5,3.16667 123.5,3.5C 123.5,3.83333 123.5,4.16667 123.5,4.5C 121.955,5.22967 121.122,6.563 121,8.5C 119,41.1667 119,73.8333 121,106.5C 122.62,108.241 124.12,110.075 125.5,112C 132.167,112.667 138.833,112.667 145.5,112C 147.66,110.668 149.66,109.168 151.5,107.5C 150.189,110.135 148.522,112.469 146.5,114.5C 139.492,114.666 132.492,114.5 125.5,114C 122.96,111.795 120.793,109.295 119,106.5C 117.245,72.513 117.078,38.513 118.5,4.5C 120.028,3.69079 121.694,3.02412 123.5,2.5 Z"/></g>
<g><path style="opacity:1" fill="#af76fc" d="M 123.5,3.5 C 123.5,3.16667 123.5,2.83333 123.5,2.5C 132.506,2.33356 141.506,2.50023 150.5,3C 152.653,3.09946 154.319,3.9328 155.5,5.5C 155.422,35.6609 155.255,65.9942 155,96.5C 156.587,104.809 153.754,110.809 146.5,114.5C 148.522,112.469 150.189,110.135 151.5,107.5C 152.529,82.1754 152.696,56.842 152,31.5C 151.363,22.1434 150.197,13.1434 148.5,4.5C 140.35,3.50728 132.017,3.17395 123.5,3.5 Z"/></g>
<g><path style="opacity:0.971" fill="#b37ffa" d="M 227.5,3.5 C 228.791,3.26269 229.791,3.59603 230.5,4.5C 230.953,30.666 231.62,56.666 232.5,82.5C 232.5,86.5 232.5,90.5 232.5,94.5C 233.194,102.85 230.194,109.517 223.5,114.5C 225.144,111.996 226.644,109.329 228,106.5C 230.063,72.1008 229.897,37.7675 227.5,3.5 Z"/></g>
<g><path style="opacity:1" fill="#832ff6" d="M 275.5,3.5 C 283.586,3.19947 291.586,3.53281 299.5,4.5C 299.5,10.8333 299.5,17.1667 299.5,23.5C 300.317,25.9686 300.817,28.6353 301,31.5C 301.667,52.8333 301.667,74.1667 301,95.5C 299.768,100.077 298.935,104.744 298.5,109.5C 291.137,109.831 283.803,109.497 276.5,108.5C 275.758,107.713 274.925,107.047 274,106.5C 272.986,72.4635 273.486,38.4635 275.5,4.5C 275.5,4.16667 275.5,3.83333 275.5,3.5 Z"/></g>
<g><path style="opacity:1" fill="#8636f6" d="M 123.5,3.5 C 132.017,3.17395 140.35,3.50728 148.5,4.5C 150.957,38.4818 151.123,72.4818 149,106.5C 148.535,107.931 147.701,109.097 146.5,110C 139.476,110.831 132.476,110.664 125.5,109.5C 124.974,107.77 123.974,106.436 122.5,105.5C 120.988,71.8009 121.322,38.1343 123.5,4.5C 123.5,4.16667 123.5,3.83333 123.5,3.5 Z"/></g>
<g><path style="opacity:1" fill="#9750fa" d="M 123.5,4.5 C 121.322,38.1343 120.988,71.8009 122.5,105.5C 123.974,106.436 124.974,107.77 125.5,109.5C 132.476,110.664 139.476,110.831 146.5,110C 147.701,109.097 148.535,107.931 149,106.5C 151.123,72.4818 150.957,38.4818 148.5,4.5C 150.197,13.1434 151.363,22.1434 152,31.5C 152.696,56.842 152.529,82.1754 151.5,107.5C 149.66,109.168 147.66,110.668 145.5,112C 138.833,112.667 132.167,112.667 125.5,112C 124.12,110.075 122.62,108.241 121,106.5C 119,73.8333 119,41.1667 121,8.5C 121.122,6.563 121.955,5.22967 123.5,4.5 Z"/></g>
<g><path style="opacity:1" fill="#771af7" d="M 125.5,4.5 C 132.5,4.5 139.5,4.5 146.5,4.5C 148.991,38.8087 149.157,73.142 147,107.5C 140.248,108.645 133.414,108.811 126.5,108C 125.54,106.581 124.707,105.081 124,103.5C 123.035,70.4684 123.535,37.4684 125.5,4.5 Z"/></g>
<g><path style="opacity:1" fill="#6801f6" d="M 127.5,23.5 C 133.425,23.1918 139.259,23.5251 145,24.5C 146.573,46.1368 146.906,67.8035 146,89.5C 145.689,91.556 145.189,93.556 144.5,95.5C 139.198,96.6628 133.864,96.8295 128.5,96C 127.033,94.9025 126.199,93.4025 126,91.5C 125.333,70.1667 125.333,48.8333 126,27.5C 126.41,26.0993 126.91,24.766 127.5,23.5 Z"/></g>
<g><path style="opacity:1" fill="#781af7" d="M 299.5,23.5 C 299.667,47.8356 299.5,72.1689 299,96.5C 298.821,99.5535 298.321,102.553 297.5,105.5C 291.218,106.626 284.885,106.793 278.5,106C 277.669,101.212 276.836,96.3788 276,91.5C 275.833,80.8333 275.667,70.1667 275.5,59.5C 275.407,41.1161 276.073,22.7828 277.5,4.5C 283.509,4.33385 289.509,4.50051 295.5,5C 297.282,11.1451 298.616,17.3118 299.5,23.5 Z"/></g>
<g><path style="opacity:1" fill="#8f43f9" d="M 299.5,4.5 C 300.5,4.5 301.5,4.5 302.5,4.5C 302.317,11.8681 302.65,19.2015 303.5,26.5C 303.893,53.191 303.393,79.8577 302,106.5C 300.641,107.365 299.474,108.365 298.5,109.5C 298.935,104.744 299.768,100.077 301,95.5C 301.667,74.1667 301.667,52.8333 301,31.5C 300.817,28.6353 300.317,25.9686 299.5,23.5C 299.5,17.1667 299.5,10.8333 299.5,4.5 Z"/></g>
<g><path style="opacity:0.709" fill="#b480fc" d="M 118.5,4.5 C 117.078,38.513 117.245,72.513 119,106.5C 120.793,109.295 122.96,111.795 125.5,114C 132.492,114.5 139.492,114.666 146.5,114.5C 143.402,115.821 139.902,116.488 136,116.5C 132.5,116.333 129,116.167 125.5,116C 123.295,113.46 120.795,111.293 118,109.5C 116.986,105.759 116.153,102.093 115.5,98.5C 116.71,83.1606 116.71,67.8273 115.5,52.5C 116.393,36.9996 117.059,21.3329 117.5,5.5C 117.5,4.83333 117.833,4.5 118.5,4.5 Z"/></g>
<g><path style="opacity:0.978" fill="#a66afa" d="M 275.5,3.5 C 275.5,3.83333 275.5,4.16667 275.5,4.5C 274.5,4.5 273.5,4.5 272.5,4.5C 271.194,38.8345 271.194,73.1678 272.5,107.5C 271.933,103.503 271.1,99.5034 270,95.5C 269.37,65.4946 269.536,35.4946 270.5,5.5C 271.552,3.74395 273.219,3.07729 275.5,3.5 Z"/></g>
<g><path style="opacity:1" fill="#954ef9" d="M 275.5,4.5 C 273.486,38.4635 272.986,72.4635 274,106.5C 274.925,107.047 275.758,107.713 276.5,108.5C 283.803,109.497 291.137,109.831 298.5,109.5C 298.389,110.117 298.056,110.617 297.5,111C 290.5,111.667 283.5,111.667 276.5,111C 275.295,109.624 273.962,108.458 272.5,107.5C 271.194,73.1678 271.194,38.8345 272.5,4.5C 273.5,4.5 274.5,4.5 275.5,4.5 Z"/></g>
<g><path style="opacity:0.642" fill="#be8ff9" d="M 267.5,10.5 C 268.478,10.811 269.145,11.4777 269.5,12.5C 268.843,36.2942 268.176,59.9609 267.5,83.5C 267.134,65.8195 266.467,48.1528 265.5,30.5C 266.167,23.8232 266.834,17.1565 267.5,10.5 Z"/></g>
<g><path style="opacity:0.397" fill="#c196fc" d="M 230.5,4.5 C 232.718,7.71931 233.885,11.386 234,15.5C 234.323,37.8609 233.823,60.1942 232.5,82.5C 231.62,56.666 230.953,30.666 230.5,4.5 Z"/></g>
<g><path style="opacity:0.233" fill="#c6a1fa" d="M 157.5,8.5 C 158.861,15.4196 159.527,22.4196 159.5,29.5C 158.936,47.8486 158.269,66.1819 157.5,84.5C 156.745,61.9965 156.078,39.3298 155.5,16.5C 155.522,13.4098 156.188,10.7432 157.5,8.5 Z"/></g>
<g><path style="opacity:1" fill="#ac74fb" d="M 275.5,3.5 C 284.72,2.10296 294.053,2.26963 303.5,4C 304.823,4.81595 305.489,5.98261 305.5,7.5C 304.198,10.1066 304.364,12.7732 306,15.5C 306.826,46.1811 306.493,76.8478 305,107.5C 303.748,109.001 302.748,110.668 302,112.5C 300.829,113.893 299.329,114.727 297.5,115C 291.167,115.667 284.833,115.667 278.5,115C 277.619,114.292 276.953,113.458 276.5,112.5C 283.807,113.764 291.14,113.764 298.5,112.5C 301.224,110.934 303.058,108.601 304,105.5C 304.83,78.9968 304.663,52.6635 303.5,26.5C 302.65,19.2015 302.317,11.8681 302.5,4.5C 301.5,4.5 300.5,4.5 299.5,4.5C 291.586,3.53281 283.586,3.19947 275.5,3.5 Z"/></g>
<g><path style="opacity:0.973" fill="#b888fb" d="M 194.5,5.5 C 195.156,6.62159 195.489,7.95492 195.5,9.5C 193.513,37.7986 193.013,66.1319 194,94.5C 194.307,99.8819 194.974,105.215 196,110.5C 198.167,111.333 199.667,112.833 200.5,115C 207.492,115.5 214.492,115.666 221.5,115.5C 214.345,116.655 207.012,116.822 199.5,116C 197.559,113.546 195.225,111.713 192.5,110.5C 190.481,77.1886 190.314,43.8553 192,10.5C 192.374,8.50869 193.207,6.84203 194.5,5.5 Z"/></g>
<g><path style="opacity:1" fill="#a669fb" d="M 227.5,3.5 C 229.897,37.7675 230.063,72.1008 228,106.5C 226.644,109.329 225.144,111.996 223.5,114.5C 222.833,114.833 222.167,115.167 221.5,115.5C 214.492,115.666 207.492,115.5 200.5,115C 199.667,112.833 198.167,111.333 196,110.5C 194.974,105.215 194.307,99.8819 194,94.5C 193.013,66.1319 193.513,37.7986 195.5,9.5C 195.489,7.95492 195.156,6.62159 194.5,5.5C 195.635,3.78679 197.302,3.12012 199.5,3.5C 208.735,2.18408 218.068,2.18408 227.5,3.5 Z"/></g>
<g><path style="opacity:1" fill="#8f43f8" d="M 199.5,3.5 C 207.684,3.17428 215.684,3.50761 223.5,4.5C 224.649,4.79106 225.316,5.62439 225.5,7C 224.676,12.9199 225.176,18.7532 227,24.5C 227.667,51.5 227.667,78.5 227,105.5C 225.5,107.667 224,109.833 222.5,112C 215.101,112.848 207.767,112.515 200.5,111C 198.68,110.021 197.513,108.521 197,106.5C 194.953,74.6605 195.12,42.8271 197.5,11C 197.631,8.22275 198.298,5.72275 199.5,3.5 Z"/></g>
<g><path style="opacity:1" fill="#7314f7" d="M 223.5,93.5 C 223.5,94.8333 223.5,96.1667 223.5,97.5C 223.041,100.49 222.041,103.323 220.5,106C 215.5,106.667 210.5,106.667 205.5,106C 204.376,105.751 203.376,105.251 202.5,104.5C 201.77,101.891 201.27,99.2241 201,96.5C 200.333,72.5 200.333,48.5 201,24.5C 201.273,22.6711 202.107,21.1711 203.5,20C 202.631,18.5354 203.131,17.3687 205,16.5C 207.242,16.4841 209.576,16.8174 212,17.5C 214.189,16.3514 216.189,15.6847 218,15.5C 219.381,19.686 221.048,24.0193 223,28.5C 223.5,50.1641 223.667,71.8308 223.5,93.5 Z"/></g>
<g><path style="opacity:1" fill="#6801f6" d="M 216.5,22.5 C 217.496,22.4142 218.329,22.7476 219,23.5C 219.725,25.9494 220.725,28.2827 222,30.5C 222.753,52.1817 222.586,73.8484 221.5,95.5C 219.339,95.8258 217.506,96.8258 216,98.5C 213.447,96.2711 210.614,95.9377 207.5,97.5C 205.974,96.0944 204.307,94.9277 202.5,94C 203.654,93.0862 203.487,92.2529 202,91.5C 201.333,71.5 201.333,51.5 202,31.5C 203.539,30.4542 203.705,29.1209 202.5,27.5C 202.559,25.2335 203.392,24.5668 205,25.5C 208.936,24.9259 212.769,23.9259 216.5,22.5 Z"/></g>
<g><path style="opacity:1" fill="#7c22f7" d="M 223.5,4.5 C 224.632,34.3302 224.632,63.9968 223.5,93.5C 223.667,71.8308 223.5,50.1641 223,28.5C 221.048,24.0193 219.381,19.686 218,15.5C 216.189,15.6847 214.189,16.3514 212,17.5C 209.576,16.8174 207.242,16.4841 205,16.5C 203.131,17.3687 202.631,18.5354 203.5,20C 202.107,21.1711 201.273,22.6711 201,24.5C 200.333,48.5 200.333,72.5 201,96.5C 201.27,99.2241 201.77,101.891 202.5,104.5C 203.376,105.251 204.376,105.751 205.5,106C 210.5,106.667 215.5,106.667 220.5,106C 222.041,103.323 223.041,100.49 223.5,97.5C 223.665,100.518 223.498,103.518 223,106.5C 222.25,107.126 221.416,107.626 220.5,108C 214.141,108.831 207.807,108.664 201.5,107.5C 201.192,106.692 200.692,106.025 200,105.5C 197.439,72.0772 198.105,38.7438 202,5.5C 209.079,4.52011 216.245,4.18678 223.5,4.5 Z"/></g>
<g><path style="opacity:0.222" fill="#c39afd" d="M 267.5,96.5 C 267.422,103.92 270.089,110.253 275.5,115.5C 283.145,116.665 290.812,116.831 298.5,116C 301.344,114.62 304.01,113.12 306.5,111.5C 300.902,118.578 293.569,121.078 284.5,119C 270.324,118.203 264.657,110.703 267.5,96.5 Z"/></g>
<g><path style="opacity:0.861" fill="#b683fd" d="M 270.5,5.5 C 269.536,35.4946 269.37,65.4946 270,95.5C 271.1,99.5034 271.933,103.503 272.5,107.5C 273.08,109.749 274.413,111.415 276.5,112.5C 276.953,113.458 277.619,114.292 278.5,115C 284.833,115.667 291.167,115.667 297.5,115C 299.329,114.727 300.829,113.893 302,112.5C 302.748,110.668 303.748,109.001 305,107.5C 306.493,76.8478 306.826,46.1811 306,15.5C 304.364,12.7732 304.198,10.1066 305.5,7.5C 306.309,9.29221 306.809,11.2922 307,13.5C 307.819,46.2085 307.652,78.8752 306.5,111.5C 304.01,113.12 301.344,114.62 298.5,116C 290.812,116.831 283.145,116.665 275.5,115.5C 270.089,110.253 267.422,103.92 267.5,96.5C 267.5,92.1667 267.5,87.8333 267.5,83.5C 268.176,59.9609 268.843,36.2942 269.5,12.5C 269.145,11.4777 268.478,10.811 267.5,10.5C 267.953,8.43482 268.953,6.76815 270.5,5.5 Z"/></g>
<g><path style="opacity:1" fill="#9f5efb" d="M 303.5,26.5 C 304.663,52.6635 304.83,78.9968 304,105.5C 303.058,108.601 301.224,110.934 298.5,112.5C 291.14,113.764 283.807,113.764 276.5,112.5C 274.413,111.415 273.08,109.749 272.5,107.5C 273.962,108.458 275.295,109.624 276.5,111C 283.5,111.667 290.5,111.667 297.5,111C 298.056,110.617 298.389,110.117 298.5,109.5C 299.474,108.365 300.641,107.365 302,106.5C 303.393,79.8577 303.893,53.191 303.5,26.5 Z"/></g>
<g><path style="opacity:1" fill="#6902f6" d="M 287.5,22.5 C 290.803,23.1651 294.137,23.8318 297.5,24.5C 298.666,48.1596 298.833,71.8263 298,95.5C 297.882,97.5733 296.882,98.9067 295,99.5C 289.59,99.4242 284.09,99.0909 278.5,98.5C 277.363,74.8637 277.197,51.197 278,27.5C 278.299,23.8342 279.966,22.8342 283,24.5C 284.876,24.4753 286.376,23.8086 287.5,22.5 Z"/></g>
<g><path style="opacity:0.801" fill="#bf92fb" d="M 155.5,5.5 C 156.401,6.29049 157.068,7.29049 157.5,8.5C 156.188,10.7432 155.522,13.4098 155.5,16.5C 156.078,39.3298 156.745,61.9965 157.5,84.5C 157.5,89.1667 157.5,93.8333 157.5,98.5C 157.04,103.676 155.54,108.676 153,113.5C 151.681,115.487 149.848,116.654 147.5,117C 139.833,117.667 132.167,117.667 124.5,117C 122.249,114.242 119.582,112.075 116.5,110.5C 115.517,106.702 115.183,102.702 115.5,98.5C 116.153,102.093 116.986,105.759 118,109.5C 120.795,111.293 123.295,113.46 125.5,116C 129,116.167 132.5,116.333 136,116.5C 139.902,116.488 143.402,115.821 146.5,114.5C 153.754,110.809 156.587,104.809 155,96.5C 155.255,65.9942 155.422,35.6609 155.5,5.5 Z"/></g>
<g><path style="opacity:0.305" fill="#c9a6fd" d="M 157.5,98.5 C 159.425,104.973 158.092,110.806 153.5,116C 152.167,116.667 150.833,117.333 149.5,118C 141.898,119.523 134.232,119.856 126.5,119C 121.261,118.238 117.927,115.405 116.5,110.5C 119.582,112.075 122.249,114.242 124.5,117C 132.167,117.667 139.833,117.667 147.5,117C 149.848,116.654 151.681,115.487 153,113.5C 155.54,108.676 157.04,103.676 157.5,98.5 Z"/></g>
<g><path style="opacity:0.035" fill="#c9a0fd" d="M 232.5,94.5 C 236.982,110.903 230.815,119.236 214,119.5C 207.866,119.673 202.033,118.506 196.5,116C 194.561,114.568 193.228,112.735 192.5,110.5C 195.225,111.713 197.559,113.546 199.5,116C 207.012,116.822 214.345,116.655 221.5,115.5C 222.167,115.167 222.833,114.833 223.5,114.5C 230.194,109.517 233.194,102.85 232.5,94.5 Z"/></g>
<g><path style="opacity:0.383" fill="#b484fb" d="M 305.5,154.5 C 203.931,155.169 102.264,155.836 0.5,156.5C 0.5,155.5 0.5,154.5 0.5,153.5C 102.192,153.368 203.859,153.702 305.5,154.5 Z"/></g>
<g><path style="opacity:0.862" fill="#af70fd" d="M 305.5,154.5 C 343.507,154.317 381.507,154.651 419.5,155.5C 281.334,156.333 143.001,156.833 4.5,157C 1.55291,157.112 0.219575,158.612 0.5,161.5C 0.5,210.167 0.5,258.833 0.5,307.5C 0.166667,307.5 -0.166667,307.5 -0.5,307.5C -0.5,257.167 -0.5,206.833 -0.5,156.5C -0.166667,156.5 0.166667,156.5 0.5,156.5C 102.264,155.836 203.931,155.169 305.5,154.5 Z"/></g>
<g><path style="opacity:0.985" fill="#a160fc" d="M 419.5,155.5 C 427.191,155.403 434.858,155.737 442.5,156.5C 448.81,158.988 454.81,161.988 460.5,165.5C 461.551,166.222 462.218,167.222 462.5,168.5C 461.127,168.657 459.793,168.49 458.5,168C 454.08,163.687 448.747,161.187 442.5,160.5C 438.858,159.92 435.191,159.42 431.5,159C 289.167,158.333 146.833,158.333 4.5,159C 2.88066,159.236 1.88066,160.069 1.5,161.5C 1.16667,161.5 0.833333,161.5 0.5,161.5C 0.219575,158.612 1.55291,157.112 4.5,157C 143.001,156.833 281.334,156.333 419.5,155.5 Z"/></g>
<g><path style="opacity:1" fill="#8d3efa" d="M 442.5,160.5 C 444.858,162.129 447.524,163.295 450.5,164C 456.237,169.536 462.904,173.536 470.5,176C 471.305,177.113 471.972,178.279 472.5,179.5C 462.42,176.566 453.42,171.732 445.5,165C 442.372,164.125 439.372,162.958 436.5,161.5C 291.432,160.169 146.432,160.169 1.5,161.5C 1.88066,160.069 2.88066,159.236 4.5,159C 146.833,158.333 289.167,158.333 431.5,159C 435.191,159.42 438.858,159.92 442.5,160.5 Z"/></g>
<g><path style="opacity:1" fill="#791df6" d="M 472.5,179.5 C 474.1,183.602 475.933,187.602 478,191.5C 481.851,193.207 485.517,195.207 489,197.5C 491.544,203.358 493.544,209.358 495,215.5C 495.748,217.751 497.248,219.084 499.5,219.5C 499.5,223.5 499.5,227.5 499.5,231.5C 498.542,231.047 497.708,230.381 497,229.5C 495.507,223.846 493.341,218.513 490.5,213.5C 489.673,209.541 489.173,205.541 489,201.5C 484.232,199.87 479.399,198.37 474.5,197C 473.299,196.097 472.465,194.931 472,193.5C 471.703,190.086 471.036,186.753 470,183.5C 469.329,182.748 468.496,182.414 467.5,182.5C 458.434,181.942 449.434,180.276 440.5,177.5C 438.851,175.35 437.018,173.35 435,171.5C 434.405,170.101 434.572,168.768 435.5,167.5C 434.687,166.186 433.687,165.019 432.5,164C 288.723,163.508 145.057,163.342 1.5,163.5C 1.5,162.833 1.5,162.167 1.5,161.5C 146.432,160.169 291.432,160.169 436.5,161.5C 439.372,162.958 442.372,164.125 445.5,165C 453.42,171.732 462.42,176.566 472.5,179.5 Z"/></g>
<g><path style="opacity:1" fill="#6d0bf4" d="M 1.5,163.5 C 145.057,163.342 288.723,163.508 432.5,164C 433.687,165.019 434.687,166.186 435.5,167.5C 434.572,168.768 434.405,170.101 435,171.5C 437.018,173.35 438.851,175.35 440.5,177.5C 449.434,180.276 458.434,181.942 467.5,182.5C 458.498,182.227 449.832,181.894 441.5,181.5C 438.55,179.885 435.884,177.885 433.5,175.5C 432.914,175.709 432.414,176.043 432,176.5C 432.11,172.871 432.276,169.204 432.5,165.5C 290.864,165.5 149.198,165.5 7.5,165.5C 8.47016,169.931 6.8035,172.265 2.5,172.5C 2.33334,218.168 2.50001,263.835 3,309.5C 3.24917,308.376 3.74917,307.376 4.5,306.5C 5.97613,308.42 6.97613,310.587 7.5,313C 6.55475,319.319 7.05475,325.819 9,332.5C 9.33333,329.167 9.66667,325.833 10,322.5C 11.1403,325.762 11.3069,328.929 10.5,332C 11.2312,340.816 11.7312,349.649 12,358.5C 12.3333,356.5 12.6667,354.5 13,352.5C 13.7679,358.373 13.6013,364.206 12.5,370C 12.7247,371.621 13.558,372.788 15,373.5C 18.3233,375.038 21.8233,376.204 25.5,377C 26.3333,377.833 27.1667,378.667 28,379.5C 29.0086,383.395 30.1752,387.228 31.5,391C 30.5509,391.617 29.7175,391.451 29,390.5C 29.6177,396.298 32.451,400.798 37.5,404C 40.095,403.869 42.595,404.036 45,404.5C 45.6239,408.112 47.1239,411.278 49.5,414C 48.6292,419.154 49.2959,424.154 51.5,429C 51.3552,429.772 51.0219,430.439 50.5,431C 54.0922,430.498 57.7589,430.498 61.5,431C 61.1667,431.333 60.8333,431.667 60.5,432C 62.2464,432.471 63.913,433.138 65.5,434C 68.8652,442.622 69.3652,451.456 67,460.5C 65.8333,463 64,464.833 61.5,466C 43.5649,468.748 25.5649,469.248 7.5,467.5C 7.42865,470.311 6.76199,472.978 5.5,475.5C 5.69133,481.732 5.69133,488.065 5.5,494.5C 4.16667,494.5 2.83333,494.5 1.5,494.5C 1.5,485.5 1.5,476.5 1.5,467.5C 18.1481,466.284 34.8147,464.784 51.5,463C 54.205,461.259 57.0383,459.759 60,458.5C 61.459,455.253 62.6256,451.92 63.5,448.5C 63.2052,446.029 62.2052,443.863 60.5,442C 50.2509,438.03 44.4176,430.53 43,419.5C 40.3209,416.077 36.8209,414.077 32.5,413.5C 30.8231,407.126 28.9898,400.793 27,394.5C 23.1447,389.647 18.978,385.147 14.5,381C 13.552,380.517 12.552,380.351 11.5,380.5C 10.4985,371.155 9.33183,361.821 8,352.5C 5.3711,343.316 3.3711,333.982 2,324.5C 1.50001,270.834 1.33334,217.168 1.5,163.5 Z"/></g>
<g><path style="opacity:1" fill="#6800f7" d="M 467.5,182.5 C 468.496,182.414 469.329,182.748 470,183.5C 471.036,186.753 471.703,190.086 472,193.5C 472.465,194.931 473.299,196.097 474.5,197C 479.399,198.37 484.232,199.87 489,201.5C 489.173,205.541 489.673,209.541 490.5,213.5C 493.341,218.513 495.507,223.846 497,229.5C 497.708,230.381 498.542,231.047 499.5,231.5C 499.5,249.833 499.5,268.167 499.5,286.5C 490.656,293.864 487.489,303.198 490,314.5C 488.59,315.787 487.09,316.954 485.5,318C 481.146,318.418 477.146,319.752 473.5,322C 471.729,326.692 470.062,331.359 468.5,336C 459.074,336.909 449.741,338.575 440.5,341C 437.833,343 435.167,345 432.5,347C 432.833,347.333 433.167,347.667 433.5,348C 432.833,349.667 432.167,351.333 431.5,353C 427.306,354.798 422.972,356.132 418.5,357C 414.765,362.934 412.265,369.434 411,376.5C 404.869,376.764 400.369,379.597 397.5,385C 396.413,389.776 395.746,394.609 395.5,399.5C 393.316,403.358 390.982,407.192 388.5,411C 386.212,411.822 383.878,412.489 381.5,413C 382.833,413.667 382.833,414.333 381.5,415C 380.552,415.483 379.552,415.649 378.5,415.5C 377.401,420.827 376.234,426.16 375,431.5C 371.06,433.15 366.893,433.983 362.5,434C 360.43,434.948 358.93,436.448 358,438.5C 355.384,446.894 356.217,454.894 360.5,462.5C 365.944,464.685 371.61,466.185 377.5,467C 390.833,467.333 404.167,467.667 417.5,468C 417.348,470.674 418.348,473.174 420.5,475.5C 419.184,476.807 418.184,478.307 417.5,480C 418.469,484.737 418.803,489.57 418.5,494.5C 280.833,494.5 143.167,494.5 5.5,494.5C 5.69133,488.065 5.69133,481.732 5.5,475.5C 6.76199,472.978 7.42865,470.311 7.5,467.5C 25.5649,469.248 43.5649,468.748 61.5,466C 64,464.833 65.8333,463 67,460.5C 69.3652,451.456 68.8652,442.622 65.5,434C 63.913,433.138 62.2464,432.471 60.5,432C 60.8333,431.667 61.1667,431.333 61.5,431C 57.7589,430.498 54.0922,430.498 50.5,431C 51.0219,430.439 51.3552,429.772 51.5,429C 49.2959,424.154 48.6292,419.154 49.5,414C 47.1239,411.278 45.6239,408.112 45,404.5C 42.595,404.036 40.095,403.869 37.5,404C 32.451,400.798 29.6177,396.298 29,390.5C 29.7175,391.451 30.5509,391.617 31.5,391C 30.1752,387.228 29.0086,383.395 28,379.5C 27.1667,378.667 26.3333,377.833 25.5,377C 21.8233,376.204 18.3233,375.038 15,373.5C 13.558,372.788 12.7247,371.621 12.5,370C 13.6013,364.206 13.7679,358.373 13,352.5C 12.6667,354.5 12.3333,356.5 12,358.5C 11.7312,349.649 11.2312,340.816 10.5,332C 11.3069,328.929 11.1403,325.762 10,322.5C 9.66667,325.833 9.33333,329.167 9,332.5C 7.05475,325.819 6.55475,319.319 7.5,313C 6.97613,310.587 5.97613,308.42 4.5,306.5C 3.74917,307.376 3.24917,308.376 3,309.5C 2.50001,263.835 2.33334,218.168 2.5,172.5C 6.8035,172.265 8.47016,169.931 7.5,165.5C 149.198,165.5 290.864,165.5 432.5,165.5C 432.276,169.204 432.11,172.871 432,176.5C 432.414,176.043 432.914,175.709 433.5,175.5C 435.884,177.885 438.55,179.885 441.5,181.5C 449.832,181.894 458.498,182.227 467.5,182.5 Z M 450.5,213.5 C 456.307,219.718 462.141,226.052 468,232.5C 471.532,241.131 473.365,250.131 473.5,259.5C 473.5,267.167 473.5,274.833 473.5,282.5C 472.028,289.589 468.362,295.422 462.5,300C 458.167,303.667 453.833,307.333 449.5,311C 447.505,311.613 445.838,311.113 444.5,309.5C 442.975,307.784 441.975,305.784 441.5,303.5C 439.034,281.571 438.367,259.571 439.5,237.5C 440.451,236.081 440.784,234.415 440.5,232.5C 441.343,228.531 442.509,224.531 444,220.5C 445.586,218.33 446.92,215.996 448,213.5C 448.77,212.402 449.603,212.402 450.5,213.5 Z"/></g>
<g><path style="opacity:0.118" fill="#ba8cfc" d="M 442.5,156.5 C 468.751,159.444 487.417,172.777 498.5,196.5C 498.631,197.239 498.464,197.906 498,198.5C 489.283,182.934 476.783,171.934 460.5,165.5C 454.81,161.988 448.81,158.988 442.5,156.5 Z"/></g>
<g><path style="opacity:1" fill="#9953f9" d="M 442.5,160.5 C 448.747,161.187 454.08,163.687 458.5,168C 459.793,168.49 461.127,168.657 462.5,168.5C 465.93,169.714 469.264,171.214 472.5,173C 480.42,179.755 487.087,187.588 492.5,196.5C 493.325,197.386 494.325,197.719 495.5,197.5C 495.343,198.873 495.51,200.207 496,201.5C 496.737,203.596 497.903,205.263 499.5,206.5C 499.5,208.833 499.5,211.167 499.5,213.5C 497.983,213.489 496.816,212.823 496,211.5C 494.23,205.292 491.897,199.292 489,193.5C 483.758,191.926 480.091,188.593 478,183.5C 476.549,181.536 474.716,180.203 472.5,179.5C 471.972,178.279 471.305,177.113 470.5,176C 462.904,173.536 456.237,169.536 450.5,164C 447.524,163.295 444.858,162.129 442.5,160.5 Z"/></g>
<g><path style="opacity:1" fill="#8937f8" d="M 472.5,179.5 C 474.716,180.203 476.549,181.536 478,183.5C 480.091,188.593 483.758,191.926 489,193.5C 491.897,199.292 494.23,205.292 496,211.5C 496.816,212.823 497.983,213.489 499.5,213.5C 499.5,215.5 499.5,217.5 499.5,219.5C 497.248,219.084 495.748,217.751 495,215.5C 493.544,209.358 491.544,203.358 489,197.5C 485.517,195.207 481.851,193.207 478,191.5C 475.933,187.602 474.1,183.602 472.5,179.5 Z"/></g>
<g><path style="opacity:0.831" fill="#ac72fb" d="M 460.5,165.5 C 476.783,171.934 489.283,182.934 498,198.5C 498.464,197.906 498.631,197.239 498.5,196.5C 498.833,196.5 499.167,196.5 499.5,196.5C 499.5,199.833 499.5,203.167 499.5,206.5C 497.903,205.263 496.737,203.596 496,201.5C 495.51,200.207 495.343,198.873 495.5,197.5C 494.325,197.719 493.325,197.386 492.5,196.5C 487.087,187.588 480.42,179.755 472.5,173C 469.264,171.214 465.93,169.714 462.5,168.5C 462.218,167.222 461.551,166.222 460.5,165.5 Z"/></g>
<g><path style="opacity:1" fill="#771af7" d="M 432.5,287.5 C 432.168,297.19 432.502,306.856 433.5,316.5C 435.231,320.729 437.898,324.229 441.5,327C 445.211,329.506 449.211,330.006 453.5,328.5C 455.69,326.476 458.023,324.643 460.5,323C 462.372,315.628 467.039,311.128 474.5,309.5C 477.479,306.859 479.979,303.859 482,300.5C 482.904,294.865 483.404,289.198 483.5,283.5C 483.667,266.497 483.5,249.497 483,232.5C 480.451,228.185 479.118,223.519 479,218.5C 475.876,213.011 471.376,209.011 465.5,206.5C 464.304,204.855 463.304,203.189 462.5,201.5C 460.183,192.166 454.183,187.999 444.5,189C 442.051,189.955 440.051,191.455 438.5,193.5C 436.675,192.429 435.508,193.096 435,195.5C 433.968,204.822 433.134,214.155 432.5,223.5C 431.837,221.527 431.504,219.361 431.5,217C 432,210.5 432.5,204 433,197.5C 435.821,188.218 441.988,184.718 451.5,187C 455.127,187.564 458.293,189.064 461,191.5C 462.536,195.667 464.37,199.667 466.5,203.5C 468.413,204.373 470.247,205.373 472,206.5C 476.583,205.029 480.249,206.363 483,210.5C 483.667,213.167 484.333,215.833 485,218.5C 485.667,243.167 485.667,267.833 485,292.5C 484.77,298.933 483.937,305.266 482.5,311.5C 475.701,311.822 469.534,313.822 464,317.5C 463.667,319.167 463.333,320.833 463,322.5C 459.491,324.67 456.991,327.17 455.5,330C 448.901,332.439 442.901,331.439 437.5,327C 437.833,326.667 438.167,326.333 438.5,326C 436.953,323.674 435.119,322.507 433,322.5C 432.667,321.167 432.333,319.833 432,318.5C 431.175,307.992 431.341,297.658 432.5,287.5 Z"/></g>
<g><path style="opacity:1" fill="#9146f9" d="M 473.5,218.5 C 471.068,217.25 468.734,215.75 466.5,214C 462.578,209.096 458.745,204.263 455,199.5C 453.561,197.552 451.728,196.219 449.5,195.5C 447.129,197.029 444.629,198.362 442,199.5C 440.579,203.979 438.912,208.313 437,212.5C 436.333,242.833 436.333,273.167 437,303.5C 439.006,306.536 439.84,309.869 439.5,313.5C 440.449,320.792 444.449,323.626 451.5,322C 455.709,317.29 460.375,313.123 465.5,309.5C 463.873,311.63 462.04,313.63 460,315.5C 458.688,320.154 455.855,323.654 451.5,326C 449.029,326.706 446.695,326.373 444.5,325C 441.212,322.056 438.379,318.89 436,315.5C 434.399,281.858 434.065,248.191 435,214.5C 436.15,211.232 436.984,207.899 437.5,204.5C 439.362,200.518 442.029,197.018 445.5,194C 452.495,192.375 456.995,195.209 459,202.5C 464.353,207.353 469.186,212.687 473.5,218.5 Z"/></g>
<g><path style="opacity:0.939" fill="#a060fb" d="M 473.5,218.5 C 474.728,219.306 475.728,220.306 476.5,221.5C 477.497,226.161 478.497,230.827 479.5,235.5C 478.883,235.389 478.383,235.056 478,234.5C 476.373,225.192 471.206,218.358 462.5,214C 461.667,211.833 460.167,210.333 458,209.5C 457.667,208.167 457.333,206.833 457,205.5C 454.227,202.086 451.06,199.586 447.5,198C 445.492,200.366 443.492,202.699 441.5,205C 441.122,208.815 439.955,212.315 438,215.5C 437.191,244.863 437.357,274.196 438.5,303.5C 439.5,303.5 440.5,303.5 441.5,303.5C 441.975,305.784 442.975,307.784 444.5,309.5C 444.389,310.117 444.056,310.617 443.5,311C 445,313.167 446.833,315 449,316.5C 451.956,313.278 455.456,310.944 459.5,309.5C 455.799,313.033 452.299,316.7 449,320.5C 445.91,318.041 442.743,315.707 439.5,313.5C 439.84,309.869 439.006,306.536 437,303.5C 436.333,273.167 436.333,242.833 437,212.5C 438.912,208.313 440.579,203.979 442,199.5C 444.629,198.362 447.129,197.029 449.5,195.5C 451.728,196.219 453.561,197.552 455,199.5C 458.745,204.263 462.578,209.096 466.5,214C 468.734,215.75 471.068,217.25 473.5,218.5 Z"/></g>
<g><path style="opacity:1" fill="#ab70fb" d="M 479.5,235.5 C 479.928,252.881 479.428,270.214 478,287.5C 475.417,291.665 473.083,295.998 471,300.5C 467.007,302.678 463.507,305.345 460.5,308.5C 464.266,301.859 468.766,295.526 474,289.5C 474.629,285.994 475.629,282.66 477,279.5C 477.667,266.167 477.667,252.833 477,239.5C 476.284,237.121 475.117,235.121 473.5,233.5C 473.661,229.156 472.161,225.489 469,222.5C 462.054,216.221 455.387,209.554 449,202.5C 444.574,206.141 441.907,210.808 441,216.5C 439.913,223.46 439.413,230.46 439.5,237.5C 438.367,259.571 439.034,281.571 441.5,303.5C 440.5,303.5 439.5,303.5 438.5,303.5C 437.357,274.196 437.191,244.863 438,215.5C 439.955,212.315 441.122,208.815 441.5,205C 443.492,202.699 445.492,200.366 447.5,198C 451.06,199.586 454.227,202.086 457,205.5C 457.333,206.833 457.667,208.167 458,209.5C 460.167,210.333 461.667,211.833 462.5,214C 471.206,218.358 476.373,225.192 478,234.5C 478.383,235.056 478.883,235.389 479.5,235.5 Z"/></g>
<g><path style="opacity:0.953" fill="#bd90fb" d="M 473.5,233.5 C 467.539,223.277 459.539,214.944 449.5,208.5C 446.77,211.352 444.27,214.352 442,217.5C 441.252,222.481 440.752,227.481 440.5,232.5C 440.784,234.415 440.451,236.081 439.5,237.5C 439.413,230.46 439.913,223.46 441,216.5C 441.907,210.808 444.574,206.141 449,202.5C 455.387,209.554 462.054,216.221 469,222.5C 472.161,225.489 473.661,229.156 473.5,233.5 Z"/></g>
<g><path style="opacity:0.592" fill="#cba5fc" d="M 473.5,233.5 C 473.892,235.179 474.392,236.846 475,238.5C 475.667,251.833 475.667,265.167 475,278.5C 474.79,280.058 474.29,281.391 473.5,282.5C 473.5,274.833 473.5,267.167 473.5,259.5C 474.909,251.931 474.742,244.265 473,236.5C 467.533,228.038 461.033,220.538 453.5,214C 452.552,213.517 451.552,213.351 450.5,213.5C 449.603,212.402 448.77,212.402 448,213.5C 446.92,215.996 445.586,218.33 444,220.5C 442.509,224.531 441.343,228.531 440.5,232.5C 440.752,227.481 441.252,222.481 442,217.5C 444.27,214.352 446.77,211.352 449.5,208.5C 459.539,214.944 467.539,223.277 473.5,233.5 Z"/></g>
<g><path style="opacity:0.192" fill="#d5b2fd" d="M 450.5,213.5 C 451.552,213.351 452.552,213.517 453.5,214C 461.033,220.538 467.533,228.038 473,236.5C 474.742,244.265 474.909,251.931 473.5,259.5C 473.365,250.131 471.532,241.131 468,232.5C 462.141,226.052 456.307,219.718 450.5,213.5 Z"/></g>
<g><path style="opacity:1" fill="#8b3bf9" d="M 462.5,201.5 C 463.304,203.189 464.304,204.855 465.5,206.5C 471.376,209.011 475.876,213.011 479,218.5C 479.118,223.519 480.451,228.185 483,232.5C 483.5,249.497 483.667,266.497 483.5,283.5C 481.902,288.673 480.402,294.006 479,299.5C 478.617,300.056 478.117,300.389 477.5,300.5C 477.335,297.482 477.502,294.482 478,291.5C 479.462,289.012 480.462,286.345 481,283.5C 481.667,266.833 481.667,250.167 481,233.5C 479.79,229.277 478.29,225.277 476.5,221.5C 475.728,220.306 474.728,219.306 473.5,218.5C 469.186,212.687 464.353,207.353 459,202.5C 456.995,195.209 452.495,192.375 445.5,194C 442.029,197.018 439.362,200.518 437.5,204.5C 439.627,194.336 445.627,190.336 455.5,192.5C 457.545,195.86 459.878,198.86 462.5,201.5 Z"/></g>
<g><path style="opacity:0.792" fill="#bc8dfd" d="M 473.5,233.5 C 475.117,235.121 476.284,237.121 477,239.5C 477.667,252.833 477.667,266.167 477,279.5C 475.629,282.66 474.629,285.994 474,289.5C 468.766,295.526 464.266,301.859 460.5,308.5C 459.833,308.5 459.5,308.833 459.5,309.5C 455.456,310.944 451.956,313.278 449,316.5C 446.833,315 445,313.167 443.5,311C 444.056,310.617 444.389,310.117 444.5,309.5C 445.838,311.113 447.505,311.613 449.5,311C 453.833,307.333 458.167,303.667 462.5,300C 468.362,295.422 472.028,289.589 473.5,282.5C 474.29,281.391 474.79,280.058 475,278.5C 475.667,265.167 475.667,251.833 475,238.5C 474.392,236.846 473.892,235.179 473.5,233.5 Z"/></g>
<g><path style="opacity:0.145" fill="#bc85fc" d="M -0.5,307.5 C -0.166667,307.5 0.166667,307.5 0.5,307.5C 0.5,318.833 0.5,330.167 0.5,341.5C 0.734993,358.242 3.56833,374.575 9,390.5C 10.6692,391.846 11.8358,393.513 12.5,395.5C 13.301,398.814 15.1343,401.48 18,403.5C 19.0899,407.777 20.7565,411.777 23,415.5C 25.8291,418.493 28.1624,421.827 30,425.5C 32.696,426.672 34.3626,428.672 35,431.5C 39.4396,434.104 42.6062,437.77 44.5,442.5C 42.4176,442.528 40.5843,441.861 39,440.5C 35.1088,432.739 29.7754,426.072 23,420.5C 18.7304,412.57 14.0637,404.903 9,397.5C 6.78634,390.299 4.11967,383.299 1,376.5C 0.822695,372.644 0.322695,368.977 -0.5,365.5C -0.5,346.167 -0.5,326.833 -0.5,307.5 Z"/></g>
<g><path style="opacity:1" fill="#771af7" d="M 499.5,286.5 C 499.5,290.5 499.5,294.5 499.5,298.5C 497.827,299.343 496.66,300.676 496,302.5C 494.29,306.711 492.957,311.044 492,315.5C 487.422,321.921 481.755,326.921 475,330.5C 474.506,332.134 474.34,333.801 474.5,335.5C 472.833,336.833 471.167,338.167 469.5,339.5C 466.478,339.804 463.478,340.304 460.5,341C 456.703,343.124 452.703,344.791 448.5,346C 444.271,347.896 440.604,350.563 437.5,354C 432.217,355.485 426.883,356.652 421.5,357.5C 419.965,360.232 418.131,362.898 416,365.5C 414.359,375.944 408.859,383.278 399.5,387.5C 399.002,390.487 398.502,393.487 398,396.5C 397.764,398.119 396.931,399.119 395.5,399.5C 395.746,394.609 396.413,389.776 397.5,385C 400.369,379.597 404.869,376.764 411,376.5C 412.265,369.434 414.765,362.934 418.5,357C 422.972,356.132 427.306,354.798 431.5,353C 432.167,351.333 432.833,349.667 433.5,348C 433.167,347.667 432.833,347.333 432.5,347C 435.167,345 437.833,343 440.5,341C 449.741,338.575 459.074,336.909 468.5,336C 470.062,331.359 471.729,326.692 473.5,322C 477.146,319.752 481.146,318.418 485.5,318C 487.09,316.954 488.59,315.787 490,314.5C 487.489,303.198 490.656,293.864 499.5,286.5 Z"/></g>
<g><path style="opacity:1" fill="#9954fa" d="M 476.5,221.5 C 478.29,225.277 479.79,229.277 481,233.5C 481.667,250.167 481.667,266.833 481,283.5C 480.462,286.345 479.462,289.012 478,291.5C 477.502,294.482 477.335,297.482 477.5,300.5C 473.482,303.524 469.482,306.524 465.5,309.5C 460.375,313.123 455.709,317.29 451.5,322C 444.449,323.626 440.449,320.792 439.5,313.5C 442.743,315.707 445.91,318.041 449,320.5C 452.299,316.7 455.799,313.033 459.5,309.5C 459.5,308.833 459.833,308.5 460.5,308.5C 463.507,305.345 467.007,302.678 471,300.5C 473.083,295.998 475.417,291.665 478,287.5C 479.428,270.214 479.928,252.881 479.5,235.5C 478.497,230.827 477.497,226.161 476.5,221.5 Z"/></g>
<g><path style="opacity:1" fill="#8735f8" d="M 499.5,298.5 C 499.5,302.5 499.5,306.5 499.5,310.5C 497.25,313.334 495.084,316.334 493,319.5C 489.442,322.727 485.609,325.561 481.5,328C 478.607,330.084 476.274,332.584 474.5,335.5C 474.34,333.801 474.506,332.134 475,330.5C 481.755,326.921 487.422,321.921 492,315.5C 492.957,311.044 494.29,306.711 496,302.5C 496.66,300.676 497.827,299.343 499.5,298.5 Z"/></g>
<g><path style="opacity:1" fill="#822cf8" d="M 462.5,201.5 C 459.878,198.86 457.545,195.86 455.5,192.5C 445.627,190.336 439.627,194.336 437.5,204.5C 436.984,207.899 436.15,211.232 435,214.5C 434.065,248.191 434.399,281.858 436,315.5C 438.379,318.89 441.212,322.056 444.5,325C 446.695,326.373 449.029,326.706 451.5,326C 455.855,323.654 458.688,320.154 460,315.5C 462.04,313.63 463.873,311.63 465.5,309.5C 469.482,306.524 473.482,303.524 477.5,300.5C 478.117,300.389 478.617,300.056 479,299.5C 480.402,294.006 481.902,288.673 483.5,283.5C 483.404,289.198 482.904,294.865 482,300.5C 479.979,303.859 477.479,306.859 474.5,309.5C 467.039,311.128 462.372,315.628 460.5,323C 458.023,324.643 455.69,326.476 453.5,328.5C 449.211,330.006 445.211,329.506 441.5,327C 437.898,324.229 435.231,320.729 433.5,316.5C 432.502,306.856 432.168,297.19 432.5,287.5C 432.5,266.167 432.5,244.833 432.5,223.5C 433.134,214.155 433.968,204.822 435,195.5C 435.508,193.096 436.675,192.429 438.5,193.5C 440.051,191.455 442.051,189.955 444.5,189C 454.183,187.999 460.183,192.166 462.5,201.5 Z"/></g>
<g><path style="opacity:0.506" fill="#b07bfb" d="M 499.5,319.5 C 499.5,320.833 499.5,322.167 499.5,323.5C 494.296,329.882 488.629,335.882 482.5,341.5C 482.44,340.957 482.107,340.624 481.5,340.5C 479.415,341.541 477.748,343.041 476.5,345C 467.869,346.617 461.536,351.117 457.5,358.5C 455.158,358.504 453.158,359.337 451.5,361C 443.673,361.535 436.006,362.868 428.5,365C 426.63,367.04 424.63,368.873 422.5,370.5C 423.373,368.114 424.873,366.114 427,364.5C 427.483,363.552 427.649,362.552 427.5,361.5C 428.167,361.5 428.833,361.5 429.5,361.5C 436.164,360.715 442.83,359.882 449.5,359C 458.526,351.804 468.192,345.637 478.5,340.5C 482.327,336.843 486.327,333.343 490.5,330C 492.458,327.252 494.291,324.418 496,321.5C 497.113,320.695 498.279,320.028 499.5,319.5 Z"/></g>
<g><path style="opacity:1" fill="#9247f9" d="M 499.5,310.5 C 499.5,312.167 499.5,313.833 499.5,315.5C 494.137,319.876 489.804,325.21 486.5,331.5C 483.271,333.942 480.271,336.608 477.5,339.5C 471.399,342.781 465.066,345.614 458.5,348C 455.177,350.324 452.177,352.991 449.5,356C 442.674,357.599 436.007,359.433 429.5,361.5C 428.833,361.5 428.167,361.5 427.5,361.5C 424.527,363.147 421.86,365.147 419.5,367.5C 420.882,364.606 422.882,362.106 425.5,360C 432.136,358.206 438.803,356.539 445.5,355C 448.711,350.946 452.377,347.279 456.5,344C 461.101,342.943 465.434,341.443 469.5,339.5C 471.167,338.167 472.833,336.833 474.5,335.5C 476.274,332.584 478.607,330.084 481.5,328C 485.609,325.561 489.442,322.727 493,319.5C 495.084,316.334 497.25,313.334 499.5,310.5 Z"/></g>
<g><path style="opacity:1" fill="#8430f8" d="M 469.5,339.5 C 465.434,341.443 461.101,342.943 456.5,344C 452.377,347.279 448.711,350.946 445.5,355C 438.803,356.539 432.136,358.206 425.5,360C 422.882,362.106 420.882,364.606 419.5,367.5C 418.147,370.205 416.814,372.872 415.5,375.5C 412.619,377.741 410.952,380.741 410.5,384.5C 406.071,387.758 402.571,391.758 400,396.5C 397.581,407.883 392.248,417.55 384,425.5C 382.991,427.025 382.491,428.692 382.5,430.5C 381.325,430.281 380.325,430.614 379.5,431.5C 378.872,433.258 377.872,434.758 376.5,436C 373.443,438.723 370.11,441.056 366.5,443C 364.522,445.497 364.022,448.331 365,451.5C 366.685,453.017 368.185,454.684 369.5,456.5C 373.119,458.336 376.453,460.336 379.5,462.5C 367.38,462.225 361.88,456.225 363,444.5C 363.374,443.584 363.874,442.75 364.5,442C 368.941,439.558 373.107,436.724 377,433.5C 377.314,427.537 379.314,422.204 383,417.5C 387.89,416.993 391.557,414.66 394,410.5C 394.719,406.855 395.219,403.188 395.5,399.5C 396.931,399.119 397.764,398.119 398,396.5C 398.502,393.487 399.002,390.487 399.5,387.5C 408.859,383.278 414.359,375.944 416,365.5C 418.131,362.898 419.965,360.232 421.5,357.5C 426.883,356.652 432.217,355.485 437.5,354C 440.604,350.563 444.271,347.896 448.5,346C 452.703,344.791 456.703,343.124 460.5,341C 463.478,340.304 466.478,339.804 469.5,339.5 Z"/></g>
<g><path style="opacity:0.043" fill="#bf91fd" d="M 482.5,341.5 C 481.375,343.129 480.041,344.629 478.5,346C 470.844,349.158 463.844,353.324 457.5,358.5C 461.536,351.117 467.869,346.617 476.5,345C 477.748,343.041 479.415,341.541 481.5,340.5C 482.107,340.624 482.44,340.957 482.5,341.5 Z"/></g>
<g><path style="opacity:0.827" fill="#a363fa" d="M 499.5,315.5 C 499.5,316.833 499.5,318.167 499.5,319.5C 498.279,320.028 497.113,320.695 496,321.5C 494.291,324.418 492.458,327.252 490.5,330C 486.327,333.343 482.327,336.843 478.5,340.5C 468.192,345.637 458.526,351.804 449.5,359C 442.83,359.882 436.164,360.715 429.5,361.5C 436.007,359.433 442.674,357.599 449.5,356C 452.177,352.991 455.177,350.324 458.5,348C 465.066,345.614 471.399,342.781 477.5,339.5C 480.271,336.608 483.271,333.942 486.5,331.5C 489.804,325.21 494.137,319.876 499.5,315.5 Z"/></g>
<g><path style="opacity:0.659" fill="#9d59f9" d="M 0.5,341.5 C 1.99473,352.132 3.82807,362.799 6,373.5C 7.70951,377.711 9.04284,382.044 10,386.5C 13.2835,391.12 16.9502,395.454 21,399.5C 23.3333,404.5 25.6667,409.5 28,414.5C 31.962,418.627 36.1286,422.627 40.5,426.5C 41.6117,431.725 44.445,435.725 49,438.5C 50.122,440.407 50.9553,442.407 51.5,444.5C 50.5,444.5 49.5,444.5 48.5,444.5C 48.6107,443.883 48.944,443.383 49.5,443C 47.6243,439.959 45.1243,437.459 42,435.5C 40.1335,433.192 39.1335,430.525 39,427.5C 37.082,424.572 34.4153,422.906 31,422.5C 28.3847,418.217 25.3847,414.217 22,410.5C 20.5314,406.43 18.8647,402.43 17,398.5C 15.871,396.859 14.371,395.859 12.5,395.5C 11.8358,393.513 10.6692,391.846 9,390.5C 3.56833,374.575 0.734993,358.242 0.5,341.5 Z"/></g>
<g><path style="opacity:0.995" fill="#8131f0" d="M 0.5,161.5 C 0.833333,161.5 1.16667,161.5 1.5,161.5C 1.5,162.167 1.5,162.833 1.5,163.5C 1.33334,217.168 1.50001,270.834 2,324.5C 3.3711,333.982 5.3711,343.316 8,352.5C 9.33183,361.821 10.4985,371.155 11.5,380.5C 13.0952,383.931 15.5952,386.598 19,388.5C 19.5968,392.572 21.7634,395.572 25.5,397.5C 27.2009,402.7 28.3675,408.034 29,413.5C 33.7044,416.692 38.0377,420.358 42,424.5C 43.769,432.598 48.4356,438.265 56,441.5C 56.4828,442.448 56.6495,443.448 56.5,444.5C 54.8333,444.5 53.1667,444.5 51.5,444.5C 50.9553,442.407 50.122,440.407 49,438.5C 44.445,435.725 41.6117,431.725 40.5,426.5C 36.1286,422.627 31.962,418.627 28,414.5C 25.6667,409.5 23.3333,404.5 21,399.5C 16.9502,395.454 13.2835,391.12 10,386.5C 9.04284,382.044 7.70951,377.711 6,373.5C 3.82807,362.799 1.99473,352.132 0.5,341.5C 0.5,330.167 0.5,318.833 0.5,307.5C 0.5,258.833 0.5,210.167 0.5,161.5 Z"/></g>
<g><path style="opacity:0.431" fill="#ab73fb" d="M 12.5,395.5 C 14.371,395.859 15.871,396.859 17,398.5C 18.8647,402.43 20.5314,406.43 22,410.5C 25.3847,414.217 28.3847,418.217 31,422.5C 34.4153,422.906 37.082,424.572 39,427.5C 39.1335,430.525 40.1335,433.192 42,435.5C 45.1243,437.459 47.6243,439.959 49.5,443C 48.944,443.383 48.6107,443.883 48.5,444.5C 47.1667,443.833 45.8333,443.167 44.5,442.5C 42.6062,437.77 39.4396,434.104 35,431.5C 34.3626,428.672 32.696,426.672 30,425.5C 28.1624,421.827 25.8291,418.493 23,415.5C 20.7565,411.777 19.0899,407.777 18,403.5C 15.1343,401.48 13.301,398.814 12.5,395.5 Z"/></g>
<g><path style="opacity:0.092" fill="#c298fd" d="M 457.5,358.5 C 455.572,360.474 453.239,361.974 450.5,363C 444.1,364.413 437.766,366.08 431.5,368C 424.856,374.452 420.689,382.285 419,391.5C 410.942,401.951 405.275,413.618 402,426.5C 397.167,431.333 392.333,436.167 387.5,441C 384.386,442.983 381.053,444.483 377.5,445.5C 377.389,444.883 377.056,444.383 376.5,444C 378.416,441.91 380.416,440.077 382.5,438.5C 383.239,438.631 383.906,438.464 384.5,438C 387.769,433.289 391.603,429.123 396,425.5C 400.943,418.509 404.443,410.842 406.5,402.5C 407.319,397.682 409.986,394.348 414.5,392.5C 416.06,388.958 417.893,385.625 420,382.5C 419.984,378.205 420.817,374.205 422.5,370.5C 424.63,368.873 426.63,367.04 428.5,365C 436.006,362.868 443.673,361.535 451.5,361C 453.158,359.337 455.158,358.504 457.5,358.5 Z"/></g>
<g><path style="opacity:0.475" fill="#ae76fb" d="M 406.5,402.5 C 404.443,410.842 400.943,418.509 396,425.5C 391.603,429.123 387.769,433.289 384.5,438C 383.906,438.464 383.239,438.631 382.5,438.5C 385.19,430.306 390.023,423.639 397,418.5C 398.569,415.846 400.236,413.179 402,410.5C 402.117,406.92 403.617,404.253 406.5,402.5 Z"/></g>
<g><path style="opacity:0.992" fill="#812af9" d="M 11.5,380.5 C 12.552,380.351 13.552,380.517 14.5,381C 18.978,385.147 23.1447,389.647 27,394.5C 28.9898,400.793 30.8231,407.126 32.5,413.5C 36.8209,414.077 40.3209,416.077 43,419.5C 44.4176,430.53 50.2509,438.03 60.5,442C 62.2052,443.863 63.2052,446.029 63.5,448.5C 62.6256,451.92 61.459,455.253 60,458.5C 57.0383,459.759 54.205,461.259 51.5,463C 34.8147,464.784 18.1481,466.284 1.5,467.5C 1.5,466.833 1.5,466.167 1.5,465.5C 17.5496,464.954 33.5496,463.788 49.5,462C 52.1305,459.304 55.2972,457.471 59,456.5C 59.2104,453.766 60.0437,451.266 61.5,449C 60.8534,447.391 60.02,445.891 59,444.5C 58.6174,445.056 58.1174,445.389 57.5,445.5C 56.8333,445.5 56.5,445.167 56.5,444.5C 56.6495,443.448 56.4828,442.448 56,441.5C 48.4356,438.265 43.769,432.598 42,424.5C 38.0377,420.358 33.7044,416.692 29,413.5C 28.3675,408.034 27.2009,402.7 25.5,397.5C 21.7634,395.572 19.5968,392.572 19,388.5C 15.5952,386.598 13.0952,383.931 11.5,380.5 Z"/></g>
<g><path style="opacity:0.716" fill="#a160fa" d="M 427.5,361.5 C 427.649,362.552 427.483,363.552 427,364.5C 424.873,366.114 423.373,368.114 422.5,370.5C 420.817,374.205 419.984,378.205 420,382.5C 417.893,385.625 416.06,388.958 414.5,392.5C 409.986,394.348 407.319,397.682 406.5,402.5C 403.617,404.253 402.117,406.92 402,410.5C 400.236,413.179 398.569,415.846 397,418.5C 390.023,423.639 385.19,430.306 382.5,438.5C 380.416,440.077 378.416,441.91 376.5,444C 377.056,444.383 377.389,444.883 377.5,445.5C 375.53,446.162 373.53,446.828 371.5,447.5C 370.227,448.257 370.227,448.923 371.5,449.5C 372.789,450.637 373.789,451.97 374.5,453.5C 369.101,452.742 366.935,449.742 368,444.5C 375.68,439.819 381.68,433.485 386,425.5C 388.703,422.462 391.703,419.795 395,417.5C 398.781,410.695 402.115,403.695 405,396.5C 408.088,393.104 410.755,389.438 413,385.5C 414.727,382.382 415.561,379.049 415.5,375.5C 416.814,372.872 418.147,370.205 419.5,367.5C 421.86,365.147 424.527,363.147 427.5,361.5 Z"/></g>
<g><path style="opacity:0.474" fill="#d6b7fd" d="M 383.5,450.5 C 397.401,452.717 411.401,454.051 425.5,454.5C 413.674,455.66 401.674,455.826 389.5,455C 387.913,454.138 386.246,453.471 384.5,453C 383.748,452.329 383.414,451.496 383.5,450.5 Z"/></g>
<g><path style="opacity:0.579" fill="#c8a0fb" d="M 43.5,451.5 C 39.9052,453.216 36.2385,455.049 32.5,457C 21.8007,457.237 11.134,457.737 0.5,458.5C 1.347,457.034 2.68034,456.2 4.5,456C 17.658,455.493 30.658,453.993 43.5,451.5 Z"/></g>
<g><path style="opacity:1" fill="#b983fb" d="M 43.5,451.5 C 44.5,451.5 45.5,451.5 46.5,451.5C 46.5858,452.496 46.2524,453.329 45.5,454C 41.0658,455.383 36.7324,457.05 32.5,459C 22.8162,459.168 13.1495,459.668 3.5,460.5C 1.24395,461.421 0.243954,463.088 0.5,465.5C 0.5,475.5 0.5,485.5 0.5,495.5C 0.166667,495.5 -0.166667,495.5 -0.5,495.5C -0.5,483.5 -0.5,471.5 -0.5,459.5C 0.166667,459.5 0.5,459.167 0.5,458.5C 11.134,457.737 21.8007,457.237 32.5,457C 36.2385,455.049 39.9052,453.216 43.5,451.5 Z"/></g>
<g><path style="opacity:0.983" fill="#c299fb" d="M 378.5,450.5 C 380.167,450.5 381.833,450.5 383.5,450.5C 383.414,451.496 383.748,452.329 384.5,453C 386.246,453.471 387.913,454.138 389.5,455C 401.674,455.826 413.674,455.66 425.5,454.5C 431.964,455.215 436.298,458.549 438.5,464.5C 436.704,463.207 435.037,461.707 433.5,460C 417.884,458.249 402.218,457.082 386.5,456.5C 383.338,454.945 380.672,452.945 378.5,450.5 Z"/></g>
<g><path style="opacity:1" fill="#b07eef" d="M 371.5,449.5 C 373.806,449.993 376.139,450.326 378.5,450.5C 380.672,452.945 383.338,454.945 386.5,456.5C 402.218,457.082 417.884,458.249 433.5,460C 435.037,461.707 436.704,463.207 438.5,464.5C 439.133,473.429 438.967,482.429 438,491.5C 437.426,493.492 436.259,494.992 434.5,496C 411.008,496.873 387.508,497.373 364,497.5C 263.667,496.224 163.334,496.224 63,497.5C 44.5,497.333 26,497.167 7.5,497C 4.96437,496.814 2.63104,496.314 0.5,495.5C 144.334,495.833 288.001,495.5 431.5,494.5C 432.5,494.5 433.5,494.5 434.5,494.5C 434.666,485.494 434.5,476.494 434,467.5C 433.578,465.574 432.411,464.574 430.5,464.5C 430.5,463.5 430.5,462.5 430.5,461.5C 416.848,460.804 403.181,460.304 389.5,460C 385.131,459.158 380.797,458.158 376.5,457C 375.027,456.29 374.36,455.124 374.5,453.5C 373.789,451.97 372.789,450.637 371.5,449.5 Z"/></g>
<g><path style="opacity:1" fill="#a160fa" d="M 56.5,449.5 C 56.3718,451.09 55.7051,452.423 54.5,453.5C 48.4745,457.688 41.8078,460.188 34.5,461C 24.1426,461.319 13.8093,461.985 3.5,463C 2.24402,463.417 1.57735,464.25 1.5,465.5C 1.16667,465.5 0.833333,465.5 0.5,465.5C 0.243954,463.088 1.24395,461.421 3.5,460.5C 13.1495,459.668 22.8162,459.168 32.5,459C 36.7324,457.05 41.0658,455.383 45.5,454C 46.2524,453.329 46.5858,452.496 46.5,451.5C 49.802,450.706 53.1353,450.04 56.5,449.5 Z"/></g>
<g><path style="opacity:1" fill="#8f41f8" d="M 1.5,465.5 C 1.57735,464.25 2.24402,463.417 3.5,463C 13.8093,461.985 24.1426,461.319 34.5,461C 41.8078,460.188 48.4745,457.688 54.5,453.5C 55.7051,452.423 56.3718,451.09 56.5,449.5C 57.2341,448.292 57.5674,446.959 57.5,445.5C 58.1174,445.389 58.6174,445.056 59,444.5C 60.02,445.891 60.8534,447.391 61.5,449C 60.0437,451.266 59.2104,453.766 59,456.5C 55.2972,457.471 52.1305,459.304 49.5,462C 33.5496,463.788 17.5496,464.954 1.5,465.5 Z"/></g>
<g><path style="opacity:1" fill="#944af9" d="M 415.5,375.5 C 415.561,379.049 414.727,382.382 413,385.5C 410.755,389.438 408.088,393.104 405,396.5C 402.115,403.695 398.781,410.695 395,417.5C 391.703,419.795 388.703,422.462 386,425.5C 381.68,433.485 375.68,439.819 368,444.5C 366.935,449.742 369.101,452.742 374.5,453.5C 374.36,455.124 375.027,456.29 376.5,457C 380.797,458.158 385.131,459.158 389.5,460C 403.181,460.304 416.848,460.804 430.5,461.5C 430.5,462.5 430.5,463.5 430.5,464.5C 413.489,463.926 396.489,463.259 379.5,462.5C 376.453,460.336 373.119,458.336 369.5,456.5C 368.185,454.684 366.685,453.017 365,451.5C 364.022,448.331 364.522,445.497 366.5,443C 370.11,441.056 373.443,438.723 376.5,436C 377.872,434.758 378.872,433.258 379.5,431.5C 380.325,430.614 381.325,430.281 382.5,430.5C 382.491,428.692 382.991,427.025 384,425.5C 392.248,417.55 397.581,407.883 400,396.5C 402.571,391.758 406.071,387.758 410.5,384.5C 410.952,380.741 412.619,377.741 415.5,375.5 Z"/></g>
<g><path style="opacity:1" fill="#7517f7" d="M 395.5,399.5 C 395.219,403.188 394.719,406.855 394,410.5C 391.557,414.66 387.89,416.993 383,417.5C 379.314,422.204 377.314,427.537 377,433.5C 373.107,436.724 368.941,439.558 364.5,442C 363.874,442.75 363.374,443.584 363,444.5C 361.88,456.225 367.38,462.225 379.5,462.5C 380.718,463.161 382.051,463.828 383.5,464.5C 395.167,465.167 406.833,465.833 418.5,466.5C 421.836,467.24 425.17,467.906 428.5,468.5C 429.298,470.078 429.798,471.744 430,473.5C 430.5,480.492 430.666,487.492 430.5,494.5C 426.5,494.5 422.5,494.5 418.5,494.5C 418.803,489.57 418.469,484.737 417.5,480C 418.184,478.307 419.184,476.807 420.5,475.5C 418.348,473.174 417.348,470.674 417.5,468C 404.167,467.667 390.833,467.333 377.5,467C 371.61,466.185 365.944,464.685 360.5,462.5C 356.217,454.894 355.384,446.894 358,438.5C 358.93,436.448 360.43,434.948 362.5,434C 366.893,433.983 371.06,433.15 375,431.5C 376.234,426.16 377.401,420.827 378.5,415.5C 379.552,415.649 380.552,415.483 381.5,415C 382.833,414.333 382.833,413.667 381.5,413C 383.878,412.489 386.212,411.822 388.5,411C 390.982,407.192 393.316,403.358 395.5,399.5 Z"/></g>
<g><path style="opacity:1" fill="#8634f8" d="M 379.5,462.5 C 396.489,463.259 413.489,463.926 430.5,464.5C 432.411,464.574 433.578,465.574 434,467.5C 434.5,476.494 434.666,485.494 434.5,494.5C 433.5,494.5 432.5,494.5 431.5,494.5C 431.167,494.5 430.833,494.5 430.5,494.5C 430.666,487.492 430.5,480.492 430,473.5C 429.798,471.744 429.298,470.078 428.5,468.5C 425.17,467.906 421.836,467.24 418.5,466.5C 406.833,465.833 395.167,465.167 383.5,464.5C 382.051,463.828 380.718,463.161 379.5,462.5 Z"/></g>
<g><path style="opacity:1" fill="#620cda" d="M 0.5,465.5 C 0.833333,465.5 1.16667,465.5 1.5,465.5C 1.5,466.167 1.5,466.833 1.5,467.5C 1.5,476.5 1.5,485.5 1.5,494.5C 2.83333,494.5 4.16667,494.5 5.5,494.5C 143.167,494.5 280.833,494.5 418.5,494.5C 422.5,494.5 426.5,494.5 430.5,494.5C 430.833,494.5 431.167,494.5 431.5,494.5C 288.001,495.5 144.334,495.833 0.5,495.5C 0.5,485.5 0.5,475.5 0.5,465.5 Z"/></g>
</svg>
